<!-- berry icon (dreamy-lab) -->
<svg xmlns="http://www.w3.org/2000/svg" viewBox="0 0 24 24" role="img" aria-label="きのみ">
  <path
    d="M12 7c-4.3 0-7 3.4-7 7.5S7.7 21 12 21s7-2.6 7-6.5S16.3 7 12 7Z"
    fill="currentColor"
    fill-opacity="0.16"
  />
  <path
    d="M12 7c-4.3 0-7 3.4-7 7.5S7.7 21 12 21s7-2.6 7-6.5S16.3 7 12 7Z"
    fill="none"
    stroke="currentColor"
    stroke-width="2"
    stroke-linecap="round"
    stroke-linejoin="round"
  />
  <path
    d="M12 7c0-2 1.2-3.6 3.2-4.6"
    fill="none"
    stroke="currentColor"
    stroke-width="2"
    stroke-linecap="round"
    stroke-linejoin="round"
  />
  <path
    d="M15.2 2.4c.2 1.8-1.1 3.6-3.2 4.6"
    fill="none"
    stroke="currentColor"
    stroke-width="2"
    stroke-linecap="round"
    stroke-linejoin="round"
  />
  <path
    d="M9 13.4c0 2 1.5 3.6 3.6 3.6"
    fill="none"
    stroke="currentColor"
    stroke-opacity="0.55"
    stroke-width="2"
    stroke-linecap="round"
    stroke-linejoin="round"
  />
</svg>
