<!-- skills icon (dreamy-lab) -->
<svg xmlns="http://www.w3.org/2000/svg" viewBox="0 0 24 24" role="img" aria-label="スキル">
  <path
    d="M12 3c-3.7 0-6.7 2.7-6.7 6.1 0 2.2 1.2 4.1 3.1 5.2.5.3.8.8.8 1.3V17c0 .6.4 1 1 1h3.6c.6 0 1-.4 1-1v-1.4c0-.5.3-1 .8-1.3 1.9-1.1 3.1-3 3.1-5.2C18.7 5.7 15.7 3 12 3Z"
    fill="currentColor"
    fill-opacity="0.16"
  />
  <path
    d="M12 3c-3.7 0-6.7 2.7-6.7 6.1 0 2.2 1.2 4.1 3.1 5.2.5.3.8.8.8 1.3V17c0 .6.4 1 1 1h3.6c.6 0 1-.4 1-1v-1.4c0-.5.3-1 .8-1.3 1.9-1.1 3.1-3 3.1-5.2C18.7 5.7 15.7 3 12 3Z"
    fill="none"
    stroke="currentColor"
    stroke-width="2"
    stroke-linecap="round"
    stroke-linejoin="round"
  />
  <path
    d="M10 21h4"
    fill="none"
    stroke="currentColor"
    stroke-width="2"
    stroke-linecap="round"
    stroke-linejoin="round"
  />
  <path
    d="M9.6 12.4c.7-1.8 2-3.1 4.8-3.4"
    fill="none"
    stroke="currentColor"
    stroke-opacity="0.55"
    stroke-width="2"
    stroke-linecap="round"
    stroke-linejoin="round"
  />
</svg>
