<!-- sparkle icon (dreamy-lab) -->
<svg xmlns="http://www.w3.org/2000/svg" viewBox="0 0 24 24" role="img" aria-label="キラキラ">
  <path
    d="M12 4l1.3 4.2L17.5 9.5l-4.2 1.3L12 15l-1.3-4.2L6.5 9.5l4.2-1.3L12 4Z"
    fill="currentColor"
    fill-opacity="0.16"
  />
  <path
    d="M12 4l1.3 4.2L17.5 9.5l-4.2 1.3L12 15l-1.3-4.2L6.5 9.5l4.2-1.3L12 4Z"
    fill="none"
    stroke="currentColor"
    stroke-width="2"
    stroke-linecap="round"
    stroke-linejoin="round"
  />
  <path
    d="M18.6 13.2l.6 2 .8.3-.8.3-.6 2-.6-2-.8-.3.8-.3.6-2Z"
    fill="currentColor"
    fill-opacity="0.14"
  />
  <path
    d="M6.2 14.4l.5 1.6.7.2-.7.2-.5 1.6-.5-1.6-.7-.2.7-.2.5-1.6Z"
    fill="currentColor"
    fill-opacity="0.14"
  />
</svg>
